<?xml version="1.0" standalone="no"?>
<!DOCTYPE svg PUBLIC "-//W3C//DTD SVG 20010904//EN"
 "http://www.w3.org/TR/2001/REC-SVG-20010904/DTD/svg10.dtd">
<svg version="1.0" xmlns="http://www.w3.org/2000/svg"
 width="589.000000pt" height="424.000000pt" viewBox="0 0 589.000000 424.000000"
 preserveAspectRatio="xMidYMid meet">

<g transform="translate(0.000000,424.000000) scale(0.100000,-0.100000)"
fill="#000000" stroke="none">
<path d="M3413 3324 c-18 -12 -29 -25 -25 -30 4 -5 -1 -2 -10 5 -10 7 -18 9
-18 4 0 -13 -52 -41 -84 -46 -16 -2 -34 -11 -41 -20 -8 -11 -19 -15 -29 -11
-9 4 -16 3 -15 -2 4 -24 -3 -34 -23 -34 -17 0 -19 -3 -10 -12 7 -7 50 -12 114
-13 154 -2 199 -22 314 -141 50 -52 95 -94 99 -94 10 0 -2 90 -14 104 -5 6 -9
13 -8 16 4 11 -30 49 -38 42 -5 -4 -5 -2 -2 4 3 6 0 23 -8 38 -8 14 -12 33 -8
42 7 20 -25 54 -51 54 -17 0 -18 2 -6 10 12 7 10 11 -10 18 -14 6 -26 6 -28 1
-2 -5 -13 -9 -25 -9 -21 1 -21 1 3 15 22 12 21 20 -2 16 -4 0 -5 6 -1 15 5 15
7 15 15 0 9 -17 38 -22 38 -7 0 5 -7 12 -16 15 -8 3 -12 11 -9 16 4 6 3 10 -2
9 -4 -1 -17 -1 -28 0 -17 1 -18 3 -5 11 12 8 10 9 -10 8 -14 -1 -39 -12 -57
-24z m-16 -60 c-3 -3 -12 -4 -19 -1 -8 3 -5 6 6 6 11 1 17 -2 13 -5z m274
-297 c-10 -9 -11 -8 -5 6 3 10 9 15 12 12 3 -3 0 -11 -7 -18z"/>
<path d="M3137 3164 c3 -7 9 -14 14 -14 14 0 10 17 -5 23 -10 4 -13 1 -9 -9z"/>
<path d="M3055 3160 c-3 -5 -2 -10 4 -10 5 0 13 5 16 10 3 6 2 10 -4 10 -5 0
-13 -4 -16 -10z"/>
<path d="M3185 3145 c-5 -2 -22 -6 -37 -9 -16 -4 -28 -11 -28 -17 0 -6 6 -6
19 1 11 5 29 10 40 10 12 0 21 5 21 10 0 6 -1 10 -2 9 -2 0 -7 -2 -13 -4z"/>
<path d="M3218 3143 c7 -3 16 -2 19 1 4 3 -2 6 -13 5 -11 0 -14 -3 -6 -6z"/>
<path d="M3298 3143 c6 -2 18 -2 25 0 6 3 1 5 -13 5 -14 0 -19 -2 -12 -5z"/>
<path d="M4528 3131 c-35 -28 -63 -92 -89 -206 -22 -93 -26 -103 -69 -144 -72
-70 -172 -101 -310 -96 -82 3 -218 48 -276 92 -17 12 -36 23 -42 23 -7 0 -24
19 -39 42 -16 23 -43 55 -60 71 -18 16 -31 33 -28 37 9 14 -120 135 -166 157
-62 29 -93 38 -85 24 4 -6 14 -11 23 -11 39 0 173 -112 173 -145 0 -3 14 -27
31 -51 17 -25 29 -47 27 -49 -7 -7 -141 -26 -146 -20 -3 3 4 5 16 5 12 0 22 5
22 11 0 6 9 8 20 4 24 -8 46 12 44 41 -2 35 -13 47 -32 32 -13 -11 -14 -11 -4
8 9 16 7 22 -10 33 -11 7 -23 10 -26 7 -3 -3 0 -6 7 -6 9 0 9 -4 -1 -14 -18
-19 -30 2 -16 27 6 12 6 17 0 13 -9 -6 -27 21 -24 36 1 4 -5 5 -12 2 -8 -3
-13 -15 -11 -25 5 -23 7 -24 -68 16 -38 20 -57 36 -57 49 0 15 -3 16 -14 7
-11 -9 -16 -9 -21 -1 -5 8 -27 10 -69 6 -33 -3 -71 -7 -83 -8 -45 -4 -22 -17
26 -15 27 1 46 6 43 11 -3 6 3 6 14 2 10 -4 35 -10 54 -12 18 -3 36 -7 39 -9
4 -5 -103 -9 -123 -6 -4 1 -17 -1 -28 -4 -15 -5 -17 -10 -8 -20 7 -8 9 -23 5
-34 -5 -17 -8 -18 -32 -6 -14 7 -33 11 -42 8 -12 -4 -13 -3 -3 5 13 9 0 17
-43 27 -5 2 -12 4 -15 5 -8 4 -39 8 -114 14 -84 7 -113 -7 -118 -56 -2 -26
-10 -37 -36 -50 -41 -20 -54 -33 -25 -24 24 8 73 -2 73 -14 0 -5 -13 -11 -29
-15 -26 -6 -65 -35 -46 -35 4 0 3 -6 -3 -12 -7 -10 -1 -20 25 -38 64 -45 95
-81 82 -96 -6 -8 -16 -11 -23 -8 -6 3 -4 -1 5 -8 13 -11 14 -16 4 -25 -7 -7
-16 -9 -19 -6 -3 4 -6 2 -6 -3 0 -8 180 -87 186 -81 1 1 -13 25 -32 52 -18 28
-34 53 -34 57 0 9 73 52 84 49 4 -1 28 6 53 15 26 10 47 13 52 8 9 -10 215
-288 274 -370 l37 -52 -48 -20 c-26 -11 -70 -28 -98 -38 -51 -18 -52 -18 -110
5 -179 71 -167 72 -107 -11 l34 -47 -37 -16 c-21 -8 -66 -23 -101 -32 -61 -17
-64 -17 -77 2 -39 54 -230 324 -249 352 -17 25 -29 32 -48 31 -15 -1 -25 -7
-22 -13 2 -7 -3 -18 -12 -25 -10 -8 -15 -9 -15 -1 0 6 6 11 13 11 6 0 4 5 -6
11 -9 6 -15 14 -12 20 3 5 -1 6 -10 3 -8 -4 -21 -1 -28 5 -9 6 -24 7 -43 2
l-29 -9 27 -1 c15 -1 33 -8 41 -16 8 -8 17 -11 21 -8 3 4 6 0 6 -7 0 -7 12
-23 26 -36 20 -19 29 -22 44 -14 16 8 22 6 36 -15 16 -25 16 -27 -5 -41 -15
-11 -19 -20 -13 -27 16 -20 26 -81 12 -72 -6 4 -9 10 -6 13 3 3 -1 14 -11 24
-9 10 -13 18 -9 18 16 0 -31 69 -76 113 -53 50 -93 61 -122 32 -8 -8 -19 -15
-25 -15 -10 0 -106 -41 -145 -62 -34 -18 -198 -36 -271 -30 -99 9 -165 6 -178
-7 -6 -6 -16 -11 -21 -11 -6 0 -4 5 4 11 12 8 11 9 -5 5 -11 -3 -46 -8 -77
-12 -32 -3 -58 -10 -58 -14 0 -5 -10 -6 -22 -3 -19 4 -20 3 -8 -7 12 -9 5 -10
-30 -5 -34 5 -41 4 -30 -5 12 -9 8 -10 -17 -5 -38 7 -55 -12 -28 -32 11 -7 14
-13 8 -13 -7 0 -15 5 -18 10 -4 6 -10 8 -14 6 -4 -3 -13 0 -21 6 -12 8 -12 9
3 4 9 -3 17 -1 17 4 0 12 -34 11 -70 0 -16 -5 -19 -8 -8 -9 9 -1 19 -5 22 -10
3 -4 -14 -4 -37 1 -34 8 -61 5 -137 -15 -73 -19 -98 -22 -109 -13 -12 8 -13 8
-7 -2 6 -10 2 -11 -16 -7 -13 3 -35 1 -48 -5 -22 -9 -21 -9 10 -4 24 4 31 2
21 -5 -29 -19 68 -35 209 -35 74 1 144 3 155 6 102 24 176 53 297 115 79 40
119 49 103 22 -4 -5 5 -5 21 1 16 6 59 8 108 4 106 -9 127 -8 196 9 16 4 13 1
-9 -9 -18 -8 -36 -13 -39 -10 -3 3 -11 -3 -19 -13 -7 -11 -30 -25 -51 -31 -20
-7 -71 -27 -113 -46 -41 -18 -116 -43 -165 -54 -260 -61 -306 -97 -206 -161
59 -37 241 -95 347 -110 123 -17 411 10 452 43 7 5 18 6 24 2 8 -5 9 -3 5 5
-5 8 5 26 27 47 19 19 42 50 53 69 11 20 26 35 37 35 10 0 15 -5 12 -10 -4 -6
-10 -8 -14 -6 -4 3 -8 -2 -8 -10 0 -11 7 -14 25 -11 23 4 24 3 19 -46 -3 -44
-2 -48 10 -32 21 30 15 0 -10 -41 -14 -26 -30 -40 -46 -42 -31 -3 -78 -44 -75
-64 2 -15 -14 -27 -43 -34 -22 -4 -14 13 8 19 12 3 18 10 14 16 -4 7 -14 5
-30 -6 -12 -10 -21 -21 -19 -25 2 -3 -9 -9 -25 -13 -16 -3 -35 -13 -42 -21 -6
-8 -25 -14 -41 -14 -16 0 -27 -4 -23 -9 3 -6 -6 -8 -21 -5 -16 3 -23 1 -19 -6
9 -15 -26 -12 -59 5 -15 8 -33 12 -39 8 -6 -3 -7 -1 -3 5 4 7 2 12 -5 12 -7 0
-9 3 -6 6 4 4 18 -1 32 -10 25 -16 26 -16 23 1 -2 13 4 19 24 21 38 4 36 19
-2 19 -18 0 -30 -6 -30 -13 0 -10 -6 -11 -23 -5 -13 5 -35 7 -49 4 -14 -3 -29
0 -32 6 -4 6 -17 11 -29 10 -21 0 -21 -1 -2 -9 19 -8 19 -9 -2 -9 -12 -1 -23
5 -26 12 -3 9 -7 9 -18 1 -8 -6 -36 -11 -63 -11 -43 0 -47 2 -30 14 17 12 17
13 0 13 -9 0 -24 -7 -32 -15 -9 -8 -20 -15 -27 -15 -6 0 -2 7 9 15 14 11 15
14 4 15 -8 0 -26 3 -40 7 -25 7 -25 7 -7 -20 10 -15 14 -27 10 -27 -5 0 -3 -4
2 -8 18 -13 55 -71 55 -86 0 -8 6 -21 13 -28 8 -7 14 -22 14 -32 0 -16 -4 -14
-25 10 -13 16 -21 23 -17 15 6 -9 4 -12 -4 -7 -6 4 -9 11 -6 15 5 9 -29 53
-36 46 -3 -2 -6 5 -7 15 -4 43 -6 49 -14 44 -4 -3 -8 0 -8 6 0 7 -7 9 -16 6
-15 -6 -15 -4 -3 10 11 14 11 18 -6 30 -10 8 -20 21 -21 30 -4 23 -35 55 -47
47 -5 -3 -7 -1 -4 4 4 6 0 17 -9 24 -13 10 -17 10 -25 -2 -5 -8 -9 -9 -9 -4 0
6 -9 15 -19 20 -11 6 -58 31 -104 58 -47 26 -90 47 -96 47 -6 0 -11 4 -11 9 0
13 -90 54 -197 92 -49 17 -92 35 -98 40 -14 13 -45 11 -42 -3 4 -25 51 -48 89
-45 20 2 35 0 32 -4 -2 -4 22 -20 53 -35 32 -15 75 -38 95 -50 21 -13 44 -24
51 -24 7 0 24 -10 37 -22 13 -12 31 -23 39 -25 9 -1 17 -7 19 -13 2 -5 8 -8
13 -4 5 3 9 2 10 -3 0 -4 2 -16 4 -25 4 -22 -4 -23 -32 -3 -14 10 -24 12 -28
5 -3 -5 -11 -10 -16 -10 -6 0 -7 4 -4 10 3 6 -1 7 -9 4 -9 -3 -14 -10 -11 -14
5 -8 -18 -20 -38 -20 -7 0 -6 4 3 10 11 7 11 10 2 10 -7 0 -11 4 -8 8 3 5 -2
9 -10 9 -9 0 -11 -4 -5 -10 10 -10 3 -40 -8 -33 -4 3 -12 -4 -19 -15 -11 -17
-9 -19 10 -19 19 0 20 2 8 11 -13 9 -13 10 1 6 9 -3 21 -1 25 3 5 5 15 5 24 0
9 -6 10 -10 3 -10 -7 0 -10 -10 -7 -27 3 -15 2 -25 -1 -21 -4 3 -7 12 -8 20
-3 15 -22 23 -22 9 0 -5 -4 -13 -9 -18 -5 -5 -6 -3 -2 5 5 8 0 12 -13 12 -14
0 -21 -6 -21 -20 0 -17 -5 -19 -38 -16 -20 2 -31 2 -24 -1 17 -7 15 -23 -3
-23 -8 0 -15 5 -15 10 0 6 -4 10 -10 10 -5 0 -10 -6 -10 -13 0 -7 -9 -18 -20
-25 -12 -7 -18 -17 -15 -22 3 -6 -1 -10 -9 -10 -18 0 -22 35 -6 45 6 3 10 14
9 23 0 11 -3 12 -6 5 -2 -7 -9 -13 -15 -13 -6 0 -8 7 -5 14 4 10 1 13 -9 9
-13 -5 -13 -8 2 -24 10 -11 12 -19 6 -19 -6 0 -9 -8 -7 -18 3 -9 -1 -4 -8 12
-9 18 -16 24 -19 16 -2 -8 -11 -11 -22 -7 -9 4 -15 11 -12 16 3 5 -4 7 -16 5
-13 -2 -17 -1 -10 2 10 5 9 9 -5 20 -10 8 -13 14 -8 13 6 -1 17 -1 25 1 11 1
9 4 -5 10 -19 8 -19 9 -1 9 16 1 17 3 5 18 -12 14 -12 15 0 9 8 -5 17 -3 22 5
14 23 10 35 -13 36 -13 1 -28 10 -35 19 -10 14 -13 15 -13 3 0 -20 20 -39 35
-33 7 3 16 0 20 -7 7 -11 -18 -10 -65 2 -9 2 -15 -2 -14 -13 2 -20 -22 -13
-30 9 -4 10 -2 13 8 10 20 -8 37 15 26 33 -8 12 -10 12 -16 -3 -3 -9 -14 -17
-24 -17 -11 0 -22 -5 -25 -10 -3 -5 -2 -10 2 -10 5 0 14 -9 21 -21 12 -19 12
-19 -10 -8 -19 9 -21 9 -10 -2 18 -19 15 -33 -4 -15 -16 17 -39 22 -30 7 3 -5
-1 -11 -8 -14 -8 -3 -17 -1 -20 6 -3 7 -3 0 0 -15 5 -21 2 -28 -10 -28 -20 0
-20 -5 1 -41 21 -35 44 -45 163 -69 55 -11 105 -28 120 -40 54 -43 170 -81
445 -146 140 -33 164 -35 370 -41 242 -6 438 6 592 37 92 19 126 33 169 72 13
11 60 26 124 39 57 11 196 42 309 70 114 27 251 56 306 65 55 8 116 19 135 24
19 5 114 19 210 31 141 17 206 20 335 16 166 -6 482 6 601 23 75 11 183 36
308 71 74 21 77 23 55 35 -18 9 -26 9 -31 1 -4 -7 -8 -9 -8 -4 0 4 -11 0 -25
-9 -14 -9 -25 -13 -25 -10 0 4 -10 0 -22 -8 -13 -8 -40 -13 -61 -11 -22 1 -54
-1 -73 -5 -23 -5 -34 -4 -34 4 0 8 -2 8 -8 0 -4 -6 -17 -10 -29 -9 -12 1 -20
-2 -17 -7 6 -9 -17 -11 -40 -2 -8 3 -12 12 -9 20 3 8 0 14 -6 14 -6 0 -11 -9
-11 -20 0 -12 -7 -20 -16 -20 -14 0 -14 3 -4 15 11 14 10 14 -14 6 -21 -9 -26
-8 -26 5 0 11 -4 12 -19 4 -31 -16 -36 -12 -11 10 13 11 21 22 18 25 -3 3 -16
-5 -30 -18 -25 -23 -26 -23 -38 -4 -9 15 -9 21 0 27 9 6 9 13 -1 31 -7 14 -14
19 -16 12 -6 -18 -40 1 -48 27 -4 11 -11 17 -17 14 -7 -4 -8 -2 -4 5 4 6 12 9
17 6 5 -4 9 -2 9 3 0 6 14 15 30 21 18 6 28 6 25 1 -8 -13 2 -13 27 1 15 8 22
8 28 -1 5 -9 9 -9 14 -1 4 6 2 11 -3 11 -6 0 -11 4 -11 9 0 6 9 8 20 6 11 -2
20 1 20 6 0 6 5 7 10 4 6 -3 10 1 10 11 0 13 3 14 15 4 10 -9 15 -9 15 -1 0 6
3 10 8 8 4 -1 18 8 32 21 13 12 38 23 54 23 l31 1 -30 8 -30 8 30 1 c23 1 129
25 183 41 12 4 25 7 75 20 48 13 72 30 41 30 -13 0 -14 3 -4 15 16 19 11 19
-77 -4 -40 -11 -73 -17 -73 -15 0 2 21 30 46 61 58 71 82 122 62 134 -7 5 -16
9 -20 9 -13 0 -57 -85 -48 -94 4 -4 6 -16 2 -25 -8 -22 -28 -41 -35 -34 -3 3
0 12 8 20 8 8 15 19 15 24 0 16 -19 10 -30 -10 -5 -11 -40 -45 -78 -76 -37
-32 -77 -65 -89 -76 -13 -11 -25 -14 -28 -8 -8 12 -25 2 -25 -14 0 -7 4 -6 10
3 7 10 10 11 10 2 0 -7 -12 -17 -27 -23 -16 -6 -47 -20 -71 -31 -24 -11 -46
-18 -49 -14 -3 3 -22 -1 -41 -10 -34 -14 -51 -8 -52 18 0 15 18 17 24 3 9 -23
25 -18 20 8 -2 12 -1 16 2 9 8 -17 44 14 44 38 0 26 12 31 27 12 12 -16 13
-16 7 1 -6 17 9 23 46 17 8 -1 12 1 8 6 -4 4 0 13 10 20 9 7 12 14 5 14 -11 0
-6 39 6 41 3 0 20 2 38 5 37 4 47 -7 37 -39 -7 -21 -7 -21 -15 -2 l-8 20 -1
-20 -1 -20 -9 20 c-8 18 -9 18 -9 2 -1 -10 7 -21 17 -24 9 -4 21 -11 25 -17 6
-7 7 -5 4 5 -3 9 -1 22 4 30 6 10 9 10 9 1 0 -10 4 -10 20 0 11 7 18 19 15 26
-3 7 0 10 5 7 17 -10 11 5 -10 27 -24 26 -25 38 -3 38 9 0 13 3 10 7 -10 9
-58 -18 -51 -29 3 -4 9 -6 13 -4 4 3 8 0 9 -7 0 -7 4 -23 8 -37 4 -15 3 -22
-2 -17 -5 5 -10 13 -10 18 -1 5 -2 14 -3 19 0 6 -7 10 -15 10 -11 0 -13 11
-10 43 2 23 5 57 6 75 0 17 4 32 8 32 5 0 6 59 1 79 -2 6 -51 -53 -51 -61 0
-18 -115 -106 -126 -96 -2 3 15 17 38 32 24 15 53 45 66 66 12 22 26 40 31 40
15 0 21 29 8 36 -7 4 -9 4 -5 0 3 -4 -1 -16 -10 -25 -10 -10 -32 -35 -51 -55
-30 -33 -141 -116 -156 -116 -3 0 -24 -9 -48 -19 -112 -50 -279 -67 -354 -36
-44 18 -46 18 -40 1 4 -9 -3 -13 -24 -12 -16 1 -29 5 -29 9 0 4 -9 3 -21 -3
-11 -7 -23 -9 -27 -6 -3 3 -1 6 4 6 5 0 -4 9 -21 20 -16 11 -34 20 -40 20 -5
0 -3 -5 5 -10 13 -8 13 -10 1 -10 -11 0 -10 -4 5 -16 10 -8 12 -12 4 -7 -8 4
-46 10 -83 14 -38 3 -74 12 -80 19 -10 10 -8 12 6 7 19 -7 77 17 77 31 0 16
-23 30 -38 25 -10 -4 -13 -2 -8 5 7 12 -29 36 -44 27 -5 -3 -11 -1 -14 4 -4 5
-2 12 4 16 5 3 10 12 10 18 0 7 -4 6 -10 -3 -7 -12 -12 -11 -31 5 -12 11 -19
15 -16 8 4 -6 2 -15 -4 -19 -8 -4 -9 -3 -5 4 7 11 -5 16 -31 13 -6 -1 -14 3
-18 9 -4 7 4 9 24 5 16 -3 32 -1 35 4 8 13 -63 55 -88 53 -15 -1 -17 1 -7 7
11 7 9 10 -8 16 -13 4 -20 9 -17 12 3 3 38 -15 78 -40 112 -70 232 -95 453
-98 89 -1 111 3 205 35 58 19 132 48 165 64 112 56 330 151 360 158 47 11 48
14 18 46 -40 43 -80 57 -185 64 -128 9 -127 8 -125 98 3 97 16 114 101 119
l61 3 -61 2 c-48 2 -67 -2 -86 -17z m-1209 -92 c57 -12 105 -44 97 -65 -3 -8
-1 -14 5 -14 6 0 3 -7 -6 -16 -8 -9 -22 -13 -31 -10 -10 4 -13 2 -8 -6 5 -8
-1 -9 -22 -4 -16 4 -30 12 -32 17 -2 5 -13 9 -25 9 -15 0 -18 -3 -9 -8 7 -5
-11 -8 -40 -7 -36 1 -52 6 -50 14 2 8 -4 10 -18 6 -11 -4 -20 -2 -20 4 0 6 4
11 10 11 5 0 12 11 16 25 5 22 11 25 53 24 54 -1 91 -12 73 -23 -20 -12 -13
-33 13 -38 13 -3 33 1 44 8 15 11 20 11 24 1 3 -6 6 -3 6 8 1 28 -23 41 -107
55 -40 6 -72 14 -72 16 0 7 48 4 99 -7z m-429 -24 c14 -15 18 -25 11 -25 -7 0
-3 -8 9 -18 21 -17 21 -19 6 -25 -10 -4 -15 -3 -11 3 3 6 2 10 -4 10 -5 0 -18
3 -28 6 -11 4 -14 3 -7 -3 16 -12 27 -63 13 -63 -20 0 -67 33 -76 54 -18 41 7
82 53 85 6 1 21 -10 34 -24z m574 -27 c18 -18 27 -58 12 -55 -6 1 -10 -4 -8
-10 1 -7 -4 -12 -10 -10 -7 1 -12 -4 -10 -12 3 -12 1 -12 -14 0 -16 12 -17 12
-11 -3 5 -13 0 -16 -22 -13 -15 2 -33 0 -41 -5 -7 -4 -24 -4 -37 1 -18 6 -22
6 -17 -3 5 -8 2 -9 -12 -3 -29 12 -84 12 -84 0 0 -6 -3 -6 -8 1 -6 10 -89 26
-135 25 -9 0 -15 5 -11 10 3 6 11 8 18 6 6 -3 29 -2 51 2 22 4 69 1 105 -6 75
-14 174 -17 166 -4 -3 4 5 7 18 6 17 -2 26 3 31 18 12 35 12 41 2 55 -5 6 -6
12 -3 12 4 0 13 -6 20 -12z m-478 -50 c4 -7 4 -10 -1 -6 -4 4 -14 0 -21 -10
-12 -15 -12 -15 -7 6 6 24 18 29 29 10z m-49 -62 c-6 -12 -10 -27 -9 -33 2 -7
-4 -13 -13 -13 -8 0 -24 -5 -35 -12 -16 -10 -27 -8 -65 10 -25 12 -53 22 -62
22 -15 0 -15 2 -3 14 21 20 97 26 86 7 -8 -12 63 -4 80 9 7 7 14 20 14 29 0
13 2 14 9 2 6 -10 5 -23 -2 -35z m-13 -80 c-1 -9 4 -16 11 -16 7 0 18 -7 25
-15 7 -8 10 -15 7 -15 -5 0 -72 36 -86 46 -1 2 0 7 3 12 10 16 41 6 40 -12z
m1521 -66 c-3 -5 -12 -10 -18 -10 -7 0 -6 4 3 10 19 12 23 12 15 0z m-45 -4
c0 -2 -7 -7 -16 -10 -8 -3 -12 -2 -9 4 6 10 25 14 25 6z m-93 -58 c-7 -10 -19
-18 -27 -18 -12 1 -11 3 3 11 9 6 15 14 13 18 -3 4 1 8 8 8 11 0 12 -4 3 -19z
m-47 -3 c-7 -8 -17 -15 -22 -15 -11 0 14 29 26 30 5 0 3 -7 -4 -15z m-90 -10
c-7 -8 -20 -15 -28 -15 -13 0 -12 3 4 15 25 19 40 19 24 0z m45 5 c-3 -5 -12
-10 -18 -10 -7 0 -6 4 3 10 19 12 23 12 15 0z m132 4 c-3 -3 -12 -4 -19 -1 -8
3 -5 6 6 6 11 1 17 -2 13 -5z m-322 -14 c-3 -5 -11 -10 -16 -10 -6 0 -7 5 -4
10 3 6 11 10 16 10 6 0 7 -4 4 -10z m89 -1 c-2 -4 -20 -7 -40 -7 -21 0 -32 3
-25 8 15 9 71 8 65 -1z m-648 -24 c4 -8 10 -15 15 -15 6 0 15 -4 22 -10 7 -5
27 -21 45 -36 17 -14 32 -33 32 -41 0 -10 -19 2 -53 33 -30 27 -65 57 -77 67
-20 14 -21 17 -7 17 10 0 20 -7 23 -15z m139 5 c3 -5 2 -10 -4 -10 -5 0 -13 5
-16 10 -3 6 -2 10 4 10 5 0 13 -4 16 -10z m620 0 c-3 -5 -12 -10 -18 -10 -7 0
-6 4 3 10 19 12 23 12 15 0z m-530 -109 c-3 -6 -11 -11 -16 -11 -5 0 -4 6 3
14 14 16 24 13 13 -3z m-42 -60 c-5 -9 -60 40 -60 54 0 11 10 5 31 -17 17 -18
30 -35 29 -37z m83 60 c8 7 17 9 21 5 3 -3 1 -6 -7 -6 -10 0 -10 -3 0 -15 7
-8 16 -13 20 -10 5 3 11 1 15 -4 3 -6 -4 -15 -16 -21 -17 -9 -20 -9 -14 0 5 8
3 11 -6 8 -8 -3 -23 2 -33 11 -18 15 -19 15 -12 -4 5 -15 4 -17 -4 -9 -9 9 -8
17 2 33 7 12 15 16 16 11 3 -7 9 -7 18 1z m779 -46 c-29 -23 -45 -31 -45 -20
0 6 62 45 70 45 3 0 -8 -11 -25 -25z m-2067 3 c7 -7 12 -9 12 -4 0 4 7 1 15
-8 8 -8 15 -22 15 -30 0 -9 5 -16 10 -16 6 0 10 -9 10 -19 0 -11 4 -22 9 -25
5 -3 8 -24 7 -46 -2 -43 2 -47 24 -27 12 10 12 9 2 -4 -6 -9 -8 -20 -4 -24 4
-5 1 -5 -5 -1 -7 4 -13 2 -13 -3 0 -6 5 -11 12 -11 6 0 1 -9 -12 -20 -13 -11
-19 -20 -14 -20 10 0 -17 -20 -28 -20 -4 0 -2 15 3 33 14 44 12 132 -2 159 -7
13 -25 40 -41 61 -28 34 -27 52 0 25z m2219 -11 c11 4 14 2 9 -5 -4 -8 0 -12
11 -13 16 0 16 -1 -2 -9 -12 -5 -14 -9 -6 -9 8 -1 12 -4 9 -7 -13 -12 -48 17
-47 39 0 12 3 17 5 10 3 -7 12 -9 21 -6z m-54 -31 c-4 -17 -3 -18 6 -6 13 18
14 1 1 -20 -9 -15 -9 -15 -24 33 -2 8 2 14 9 14 7 0 10 -9 8 -21z m-176 -2
c-31 -17 -118 -40 -156 -42 -32 -1 -19 10 16 13 15 2 55 12 88 23 73 24 89 26
52 6z m-1793 -16 c-5 -7 0 -9 14 -6 18 5 20 3 13 -10 -5 -10 -5 -26 -1 -37 4
-11 5 -27 3 -35 -3 -10 1 -8 11 4 17 21 20 14 8 -17 -7 -16 -10 -15 -40 9 -17
15 -29 30 -26 35 3 5 1 9 -5 9 -5 0 -9 9 -8 19 0 11 5 17 9 15 5 -3 5 -10 2
-16 -4 -7 -2 -8 5 -4 6 4 9 16 6 27 -4 11 -2 19 5 19 6 0 8 -5 4 -12z m2246 9
c0 -2 -15 -16 -32 -33 l-33 -29 29 33 c28 30 36 37 36 29z m-3208 -14 c-6 -2
-9 -10 -6 -15 4 -7 2 -8 -5 -4 -13 9 -5 26 12 25 9 0 8 -2 -1 -6z m2862 -8
c-4 -8 -1 -15 7 -15 7 0 10 -2 7 -5 -3 -3 -17 -1 -32 5 -23 8 -26 7 -24 -7 2
-9 -4 -18 -12 -20 -13 -4 -13 -3 0 6 13 9 13 11 -2 11 -9 0 -20 5 -24 12 -5 8
-2 9 9 5 10 -3 17 -2 17 3 0 8 20 16 47 19 7 0 10 -6 7 -14z m-299 -14 c-6 -5
-46 -11 -90 -14 -92 -7 -82 -1 20 12 39 5 72 9 75 10 2 0 0 -3 -5 -8z m-267
-11 c50 0 92 -3 92 -7 0 -7 -197 -10 -210 -4 -17 8 -45 8 -73 -1 -18 -5 -45
-11 -62 -13 -16 -2 -38 -6 -48 -10 -12 -5 -17 -3 -15 6 4 19 109 39 173 33 28
-2 92 -4 143 -4z m448 -37 c-3 -4 -6 -1 -6 6 0 7 -8 3 -17 -8 l-18 -22 0 24
c0 15 5 23 13 20 6 -3 12 1 12 8 0 9 4 7 11 -4 6 -10 8 -21 5 -24z m517 26
c-5 -5 -27 -12 -47 -14 -44 -4 -41 4 6 15 47 11 53 11 41 -1z m-381 -14 c0 -5
-5 -11 -11 -13 -6 -2 -11 4 -11 13 0 9 5 15 11 13 6 -2 11 -8 11 -13z m58 5
c0 -5 -4 -10 -10 -10 -5 0 -10 5 -10 10 0 6 5 10 10 10 6 0 10 -4 10 -10z
m-3195 -28 c-3 -3 -11 0 -18 7 -9 10 -8 11 6 5 10 -3 15 -9 12 -12z m-180 -2
c-3 -5 -12 -10 -18 -10 -7 0 -6 4 3 10 19 12 23 12 15 0z m2922 -32 c-3 -7 -5
-2 -5 12 0 14 2 19 5 13 2 -7 2 -19 0 -25z m-2992 -6 c-3 -3 -11 0 -18 7 -9
10 -8 11 6 5 10 -3 15 -9 12 -12z m2317 -5 c-12 -7 -21 -15 -18 -18 2 -2 -7
-5 -21 -6 l-25 -1 28 18 c16 10 36 19 44 19 9 0 6 -5 -8 -12z m912 -38 c-3 -6
0 -15 7 -20 9 -6 10 -9 2 -9 -15 0 -26 17 -18 30 3 6 8 10 11 10 3 0 2 -5 -2
-11z m33 -45 c-3 -3 -12 -4 -19 -1 -8 3 -5 6 6 6 11 1 17 -2 13 -5z m-153 -26
c-3 -4 -30 -8 -60 -8 -72 0 -63 15 10 16 30 1 53 -3 50 -8z m-127 -4 c-3 -3
-12 -4 -19 -1 -8 3 -5 6 6 6 11 1 17 -2 13 -5z m-557 -28 c0 -3 -7 -12 -16
-20 -18 -18 -44 -21 -44 -5 0 5 5 7 10 4 6 -3 17 1 26 9 15 16 24 20 24 12z
m165 -75 c-3 -6 -11 -8 -17 -5 -6 4 -5 9 3 15 16 10 23 4 14 -10z m-744 -14
c-10 -9 -11 -8 -5 6 3 10 9 15 12 12 3 -3 0 -11 -7 -18z m1009 19 c0 -3 -4 -8
-10 -11 -5 -3 -10 -1 -10 4 0 6 5 11 10 11 6 0 10 -2 10 -4z m337 -46 c-1 -10
-4 -17 -8 -14 -4 2 -9 -4 -11 -13 -3 -15 -6 -14 -17 6 -12 21 -11 26 4 37 22
16 34 10 32 -16z m-1794 -20 c3 -11 1 -18 -4 -14 -5 3 -9 12 -9 20 0 20 7 17
13 -6z m1737 10 c0 -5 -5 -10 -11 -10 -5 0 -7 5 -4 10 3 6 8 10 11 10 2 0 4
-4 4 -10z m-2825 -20 c3 -6 -1 -7 -9 -4 -18 7 -21 14 -7 14 6 0 13 -4 16 -10z
m100 -20 c3 -5 1 -10 -4 -10 -6 0 -11 5 -11 10 0 6 2 10 4 10 3 0 8 -4 11 -10z
m-181 -18 c3 -5 -1 -9 -9 -9 -8 0 -12 4 -9 9 3 4 7 8 9 8 2 0 6 -4 9 -8z
m1901 -8 c-11 -8 -58 -35 -105 -59 -47 -23 -98 -50 -115 -59 -16 -8 -31 -13
-34 -11 -7 7 36 45 51 45 19 1 49 26 40 35 -4 4 2 5 13 2 12 -4 47 7 90 28 78
38 90 42 60 19z m-1937 -20 c0 -15 -4 -22 -10 -16 -5 5 -6 16 -2 25 9 23 12
21 12 -9z m1092 22 c0 -2 -7 -6 -15 -10 -8 -3 -15 -1 -15 4 0 6 7 10 15 10 8
0 15 -2 15 -4z m-1546 -35 c4 -5 -3 -7 -14 -4 -23 6 -26 13 -6 13 8 0 17 -4
20 -9z m356 -26 c-10 -12 -10 -15 3 -15 9 0 18 8 20 18 4 13 5 11 6 -5 1 -19
-4 -23 -28 -23 -16 0 -37 3 -46 7 -16 6 -2 14 54 32 2 0 -2 -6 -9 -14z m312
-17 c-3 -12 -7 -17 -10 -10 -2 7 -8 9 -14 6 -5 -3 -4 3 3 14 16 26 29 19 21
-10z m48 22 c12 -8 12 -10 -4 -16 -13 -5 -14 -9 -5 -14 7 -5 9 -16 5 -25 -9
-24 -17 -13 -22 29 -3 38 1 42 26 26z m-290 -10 c0 -5 -5 -10 -11 -10 -5 0 -7
5 -4 10 3 6 8 10 11 10 2 0 4 -4 4 -10z m1275 -31 c-12 -18 -42 -29 -42 -15 0
7 7 13 16 12 9 0 15 5 13 12 -1 8 2 11 8 7 6 -3 8 -11 5 -16z m-1399 0 c3 -6
17 -8 30 -5 18 5 24 2 24 -9 0 -9 4 -13 10 -10 6 4 7 -1 3 -11 -4 -12 -3 -15
5 -10 13 8 15 1 6 -30 -4 -16 -11 -20 -31 -16 -20 4 -24 9 -20 28 2 13 0 24
-4 24 -5 0 -9 -5 -9 -12 0 -6 -6 -3 -14 7 -8 11 -11 26 -8 34 3 9 1 12 -6 7
-7 -4 -12 -2 -12 3 0 14 17 14 26 0z m638 3 c3 -5 -1 -9 -9 -9 -8 0 -12 4 -9
9 3 4 7 8 9 8 2 0 6 -4 9 -8z m146 -3 c0 -15 -18 -19 -23 -6 -3 8 1 14 9 14 8
0 14 -4 14 -8z m-453 -21 c-3 -8 -6 -5 -6 6 -1 11 2 17 5 13 3 -3 4 -12 1 -19z
m-387 8 c0 -3 -4 -8 -10 -11 -5 -3 -10 -1 -10 4 0 6 5 11 10 11 6 0 10 -2 10
-4z m1400 -11 c0 -9 -6 -12 -17 -8 -11 4 -14 3 -9 -5 5 -8 -1 -12 -16 -12 -17
0 -19 -3 -9 -9 8 -5 11 -16 8 -24 -5 -12 1 -14 29 -11 19 2 35 0 36 -6 4 -28
1 -33 -17 -36 -11 -2 -21 -8 -23 -13 -5 -16 -54 -13 -76 4 -11 8 -25 15 -30
15 -6 -1 0 -7 14 -15 28 -16 19 -21 -10 -5 -13 7 -16 17 -13 32 6 22 5 22 -13
7 -20 -16 -124 -70 -124 -64 0 5 99 75 108 76 4 1 14 5 23 9 8 5 22 4 30 -1
12 -7 12 -9 0 -9 -8 0 -12 -2 -9 -5 9 -10 38 7 31 18 -3 6 -1 7 5 3 7 -4 17
-4 23 0 19 11 -13 24 -33 13 -10 -5 -18 -6 -18 -2 0 7 86 59 103 62 4 0 7 -6
7 -14z m-276 -3 c6 -11 -11 -38 -19 -30 -4 3 -15 -1 -25 -10 -43 -39 -54 -45
-81 -45 -24 0 -27 -3 -17 -15 9 -11 9 -13 -3 -10 -8 1 -16 -1 -17 -7 -2 -9
-92 -38 -99 -32 -7 7 20 26 87 61 80 42 103 60 92 70 -3 4 0 4 9 1 8 -3 23 1
34 9 23 18 32 19 39 8z m-200 -38 c5 -13 3 -14 -6 -6 -7 5 -22 12 -33 15 -16
4 -14 5 6 6 17 1 29 -5 33 -15z m474 -4 c-15 -24 -25 -26 -25 -5 0 8 4 12 8 9
4 -2 10 0 14 6 3 5 8 10 11 10 2 0 -1 -9 -8 -20z m-473 -31 c5 -6 3 -9 -8 -9
-9 0 -17 -4 -17 -9 0 -21 -121 -48 -165 -37 -26 7 -61 62 -43 69 21 8 222 -4
233 -14z m574 -8 c12 -11 16 -11 27 3 10 14 16 15 38 5 43 -20 35 -32 -28 -43
-32 -6 -38 -5 -33 8 6 16 -10 26 -31 18 -9 -3 -8 -8 5 -18 16 -12 16 -13 1
-14 -18 0 -33 33 -23 50 8 12 25 9 44 -9z m180 -10 c-15 -5 -22 6 -14 19 6 9
10 9 16 -1 5 -8 4 -15 -2 -18z m-639 -31 c0 -5 -9 -10 -21 -10 -11 0 -17 5
-14 10 3 6 13 10 21 10 8 0 14 -4 14 -10z"/>
<path d="M2875 2850 c-16 -6 -13 -8 13 -7 17 0 32 1 32 2 0 8 -28 11 -45 5z"/>
<path d="M3710 2507 c0 -2 6 -10 14 -16 11 -9 16 -9 22 1 4 7 4 10 -1 6 -4 -4
-14 -3 -22 3 -7 6 -13 9 -13 6z"/>
<path d="M2647 2363 c5 -12 3 -14 -7 -8 -9 5 -11 4 -6 -3 11 -19 26 -14 26 8
0 11 -4 20 -10 20 -5 0 -6 -7 -3 -17z"/>
<path d="M4340 2040 c-8 -5 -12 -11 -9 -14 2 -3 11 -1 19 4 8 5 12 11 9 14 -2
3 -11 1 -19 -4z"/>
<path d="M1240 1840 c-13 -8 -12 -10 3 -10 9 0 17 5 17 10 0 12 -1 12 -20 0z"/>
<path d="M1260 1790 c0 -5 5 -10 10 -10 6 0 10 5 10 10 0 6 -4 10 -10 10 -5 0
-10 -4 -10 -10z"/>
<path d="M2210 1790 c-9 -6 -10 -10 -3 -10 6 0 15 5 18 10 8 12 4 12 -15 0z"/>
<path d="M3020 3135 c0 -9 44 -23 54 -18 4 3 2 9 -5 14 -15 10 -49 12 -49 4z"/>
<path d="M4745 3120 c32 -11 61 -18 63 -16 5 5 -89 36 -107 35 -9 0 11 -9 44
-19z"/>
<path d="M3090 3110 c-9 -6 -10 -10 -3 -10 6 0 15 5 18 10 8 12 4 12 -15 0z"/>
<path d="M3360 3080 c0 -6 7 -10 15 -10 8 0 15 2 15 4 0 2 -7 6 -15 10 -8 3
-15 1 -15 -4z"/>
<path d="M3400 3071 c0 -10 19 -25 25 -20 1 2 -3 10 -11 17 -8 7 -14 8 -14 3z"/>
<path d="M4400 2893 c-34 -67 -36 -73 -7 -33 22 32 43 80 35 80 -2 0 -15 -21
-28 -47z"/>
<path d="M2704 2805 c-4 -8 -10 -12 -15 -9 -5 3 -9 -4 -9 -14 0 -15 -5 -19
-20 -15 -11 3 -20 9 -20 14 0 5 -7 6 -15 3 -12 -5 -10 -10 9 -25 13 -10 33
-19 44 -19 20 0 62 47 62 69 0 16 -30 13 -36 -4z"/>
<path d="M4859 2803 c-13 -16 -12 -17 4 -4 16 13 21 21 13 21 -2 0 -10 -8 -17
-17z"/>
<path d="M2539 2795 c-30 -16 -50 -51 -23 -41 8 3 18 6 20 6 2 0 4 5 4 11 0 7
8 18 18 25 22 17 14 17 -19 -1z"/>
<path d="M4796 2791 c-10 -10 -14 -21 -9 -24 5 -3 13 6 20 19 13 29 11 30 -11
5z"/>
<path d="M4820 2771 c0 -19 12 -41 23 -41 6 0 7 3 4 6 -3 4 -2 15 4 25 8 16 6
19 -11 19 -11 0 -20 -4 -20 -9z"/>
<path d="M4747 2753 c-4 -3 -7 -14 -7 -24 0 -9 -6 -20 -12 -22 -10 -4 -10 -6
-1 -6 12 -1 43 36 43 51 0 10 -14 10 -23 1z"/>
<path d="M4793 2725 c-24 -27 -18 -32 11 -10 10 7 16 18 15 24 -2 5 -14 -1
-26 -14z"/>
<path d="M2485 2730 c-3 -6 1 -7 9 -4 18 7 21 14 7 14 -6 0 -13 -4 -16 -10z"/>
<path d="M2320 2714 c-14 -7 -21 -14 -17 -14 5 0 1 -7 -7 -16 -9 -8 -20 -13
-24 -10 -5 3 -9 -1 -9 -9 0 -18 -3 -18 36 1 17 8 29 19 26 24 -3 5 5 16 17 24
27 19 13 19 -22 0z"/>
<path d="M2426 2687 c-16 -12 -16 -14 -2 -26 9 -7 13 -18 9 -24 -3 -6 -1 -7 5
-3 7 4 12 2 12 -3 0 -16 17 -13 23 3 4 10 1 13 -7 10 -8 -3 -17 -1 -21 5 -5
10 6 15 27 12 3 0 5 7 4 17 -4 22 -26 26 -50 9z"/>
<path d="M2560 2680 c0 -5 5 -10 10 -10 6 0 10 5 10 10 0 6 -4 10 -10 10 -5 0
-10 -4 -10 -10z"/>
<path d="M4745 2670 c-3 -5 -1 -10 4 -10 6 0 11 5 11 10 0 6 -2 10 -4 10 -3 0
-8 -4 -11 -10z"/>
<path d="M2565 2654 c-16 -7 -23 -13 -15 -14 12 0 13 -2 1 -9 -7 -5 -22 -6
-34 -3 -15 4 -18 2 -12 -8 6 -10 4 -12 -8 -7 -10 3 -17 2 -17 -3 0 -11 23 -13
34 -3 3 4 16 8 28 10 12 2 26 9 30 16 5 8 8 7 8 -5 0 -10 -5 -18 -12 -18 -6 0
-9 -2 -7 -4 2 -2 26 1 52 8 37 9 45 15 35 23 -33 26 -53 30 -83 17z m38 -19
c-3 -9 -8 -14 -10 -11 -3 3 -2 9 2 15 9 16 15 13 8 -4z"/>
<path d="M4883 2655 c-8 -23 1 -27 23 -10 19 15 19 15 0 8 -13 -4 -17 -3 -12
5 4 7 5 12 1 12 -3 0 -8 -7 -12 -15z"/>
<path d="M2258 2633 c7 -3 16 -2 19 1 4 3 -2 6 -13 5 -11 0 -14 -3 -6 -6z"/>
<path d="M4907 2623 c-4 -3 -7 -11 -7 -17 0 -6 5 -5 12 2 6 6 9 14 7 17 -3 3
-9 2 -12 -2z"/>
<path d="M2236 2600 c7 -24 6 -24 -19 -7 -33 21 -34 21 -40 -3 -7 -29 18 -46
48 -32 27 12 31 28 14 52 -8 11 -9 9 -3 -10z"/>
<path d="M2335 2584 c11 -9 19 -20 17 -25 -1 -6 2 -8 8 -4 15 9 -4 38 -26 41
-18 3 -18 2 1 -12z"/>
<path d="M4750 2590 c0 -5 5 -10 11 -10 5 0 7 5 4 10 -3 6 -8 10 -11 10 -2 0
-4 -4 -4 -10z"/>
<path d="M4380 2579 c0 -5 5 -7 10 -4 6 3 10 8 10 11 0 2 -4 4 -10 4 -5 0 -10
-5 -10 -11z"/>
<path d="M1983 2546 c4 -9 1 -16 -6 -16 -7 0 -4 -5 6 -11 29 -17 40 4 15 25
-18 15 -20 16 -15 2z"/>
<path d="M2295 2549 c-4 -6 -5 -13 -2 -16 7 -7 27 6 27 18 0 12 -17 12 -25 -2z"/>
<path d="M3800 2545 c0 -18 71 -38 84 -25 7 7 1 10 -16 10 -15 0 -28 5 -30 12
-6 16 -38 19 -38 3z"/>
<path d="M4190 2529 c0 -5 5 -7 10 -4 6 3 10 8 10 11 0 2 -4 4 -10 4 -5 0 -10
-5 -10 -11z"/>
<path d="M2260 2520 c-13 -8 -12 -10 3 -10 9 0 17 5 17 10 0 12 -1 12 -20 0z"/>
<path d="M3910 2519 c0 -5 5 -7 10 -4 6 3 10 8 10 11 0 2 -4 4 -10 4 -5 0 -10
-5 -10 -11z"/>
<path d="M4135 2520 c-3 -5 -2 -10 4 -10 5 0 13 5 16 10 3 6 2 10 -4 10 -5 0
-13 -4 -16 -10z"/>
<path d="M4810 2519 c0 -5 5 -7 10 -4 6 3 10 8 10 11 0 2 -4 4 -10 4 -5 0 -10
-5 -10 -11z"/>
<path d="M1904 2509 c-6 -11 41 -23 56 -14 5 3 8 10 5 14 -6 11 -54 11 -61 0z"/>
<path d="M4098 2513 c7 -3 16 -2 19 1 4 3 -2 6 -13 5 -11 0 -14 -3 -6 -6z"/>
<path d="M2568 2489 c-15 -8 -16 -13 -5 -29 15 -26 23 -25 31 2 7 29 -4 40
-26 27z"/>
<path d="M2097 2469 c7 -7 15 -10 18 -7 3 3 -2 9 -12 12 -14 6 -15 5 -6 -5z"/>
<path d="M3831 2471 c-9 -6 -10 -11 -2 -15 6 -4 11 -4 11 1 0 4 5 1 10 -7 8
-13 10 -13 10 2 0 21 -12 29 -29 19z"/>
<path d="M2038 2463 c7 -3 16 -2 19 1 4 3 -2 6 -13 5 -11 0 -14 -3 -6 -6z"/>
<path d="M4601 2304 c0 -11 3 -14 6 -6 3 7 2 16 -1 19 -3 4 -6 -2 -5 -13z"/>
<path d="M4830 2303 c-19 -3 -39 -8 -44 -13 -10 -10 57 -2 89 11 21 8 13 8
-45 2z"/>
<path d="M5050 2220 c0 -5 5 -10 10 -10 6 0 10 5 10 10 0 6 -4 10 -10 10 -5 0
-10 -4 -10 -10z"/>
<path d="M4950 2200 c-12 -7 -12 -12 -3 -21 15 -15 26 -7 21 15 -2 11 -7 13
-18 6z"/>
<path d="M4869 2164 c-5 -6 -6 -20 -2 -29 4 -13 3 -16 -5 -11 -7 4 -12 2 -12
-3 0 -20 20 -11 30 12 7 19 9 19 9 3 1 -14 4 -16 14 -7 8 6 17 8 20 4 4 -3 7
5 7 18 0 19 -5 24 -26 24 -14 0 -30 -5 -35 -11z"/>
<path d="M4476 2145 c-3 -9 0 -15 9 -15 9 0 12 6 9 15 -4 8 -7 15 -9 15 -2 0
-5 -7 -9 -15z"/>
<path d="M4787 2154 c-13 -13 -7 -24 14 -24 11 0 19 5 17 12 -5 14 -22 21 -31
12z"/>
<path d="M2474 2132 c4 -7 2 -12 -3 -12 -6 0 -11 -4 -11 -10 0 -15 17 -12 23
5 4 8 1 17 -5 21 -7 4 -8 3 -4 -4z"/>
<path d="M680 2100 c-6 -10 -11 -59 -12 -107 -2 -76 2 -98 27 -163 38 -98 88
-150 214 -222 147 -84 300 -143 516 -198 272 -69 468 -97 780 -111 267 -11
827 -9 856 5 9 4 21 18 27 30 l10 23 -106 6 c-108 5 -326 2 -416 -7 -27 -3
-54 -2 -59 1 -12 7 -90 11 -329 17 -102 2 -195 9 -206 15 -19 10 -310 54 -334
50 -16 -3 -54 7 -128 31 -93 31 -284 83 -300 81 -41 -4 -55 0 -79 23 -26 25
-223 119 -248 119 -23 0 -137 102 -154 138 -29 60 -44 132 -44 212 0 42 -1 77
-2 77 -1 0 -7 -9 -13 -20z"/>
<path d="M4571 2103 c-1 -16 29 -44 40 -38 5 4 9 -2 9 -11 0 -10 2 -15 5 -12
4 3 3 18 -1 33 -5 19 -11 25 -25 22 -10 -3 -20 0 -23 7 -3 8 -5 8 -5 -1z"/>
<path d="M1500 2093 c0 -13 45 -43 57 -39 7 3 13 1 13 -4 0 -6 6 -10 13 -10 6
-1 28 -14 47 -30 38 -33 52 -37 69 -16 9 10 8 15 -3 19 -11 4 -13 1 -9 -11 6
-16 5 -16 -14 1 -11 9 -23 14 -28 10 -4 -5 -5 -2 -1 5 4 7 0 14 -11 18 -10 3
-30 12 -44 20 -14 7 -29 11 -33 7 -3 -3 -6 -2 -6 4 0 5 -11 15 -25 21 -14 6
-25 9 -25 5z"/>
<path d="M4546 2085 c-3 -8 -1 -15 4 -15 6 0 10 7 10 15 0 8 -2 15 -4 15 -2 0
-6 -7 -10 -15z"/>
<path d="M4950 2085 c0 -9 5 -15 11 -13 6 2 11 8 11 13 0 5 -5 11 -11 13 -6 2
-11 -4 -11 -13z"/>
<path d="M5087 2085 c-4 -8 -2 -17 3 -20 6 -4 10 3 10 14 0 25 -6 27 -13 6z"/>
<path d="M975 2070 c-3 -6 1 -7 9 -4 18 7 21 14 7 14 -6 0 -13 -4 -16 -10z"/>
<path d="M2440 2070 c-9 -6 -10 -10 -3 -10 6 0 15 5 18 10 8 12 4 12 -15 0z"/>
<path d="M781 2043 c-7 -8 -14 -30 -15 -48 -1 -26 -4 -31 -16 -25 -11 6 -15 2
-16 -18 -1 -15 1 -21 3 -15 3 9 10 10 24 3 20 -11 21 -11 23 45 0 16 6 30 13
30 6 0 15 3 19 8 4 4 2 7 -4 7 -6 0 -12 6 -14 14 -2 12 -5 12 -17 -1z"/>
<path d="M4793 2053 c-18 -6 -16 -33 1 -33 19 0 31 19 20 30 -5 4 -15 5 -21 3z"/>
<path d="M741 2024 c0 -11 3 -14 6 -6 3 7 2 16 -1 19 -3 4 -6 -2 -5 -13z"/>
<path d="M840 2030 c-12 -7 -10 -9 7 -7 12 0 19 5 17 9 -6 10 -6 10 -24 -2z"/>
<path d="M1214 2025 c-8 -8 -8 -16 1 -28 16 -23 32 -21 46 4 6 13 7 19 1 15
-6 -3 -17 0 -24 7 -10 11 -16 11 -24 2z m31 -34 c-6 -5 -25 10 -25 20 0 5 6 4
14 -3 8 -7 12 -15 11 -17z"/>
<path d="M2410 2029 c0 -5 5 -7 10 -4 6 3 10 8 10 11 0 2 -4 4 -10 4 -5 0 -10
-5 -10 -11z"/>
<path d="M1056 2008 c3 -5 10 -6 15 -3 13 9 11 12 -6 12 -8 0 -12 -4 -9 -9z"/>
<path d="M2311 1994 c-23 -14 -39 -29 -36 -34 3 -5 -5 -16 -17 -24 -12 -9 -17
-16 -11 -16 7 0 15 5 19 11 3 6 14 9 23 6 10 -2 18 1 18 9 0 7 -5 10 -10 7 -6
-3 -7 -1 -3 6 4 6 15 10 24 9 12 -2 16 3 14 16 -2 11 1 15 7 11 6 -3 11 -1 11
6 0 8 3 9 13 0 13 -10 27 -6 27 9 0 15 -40 6 -79 -16z"/>
<path d="M840 1990 c-13 -8 -12 -10 3 -10 9 0 17 5 17 10 0 12 -1 12 -20 0z"/>
<path d="M1184 1988 c3 -12 -2 -18 -17 -21 -12 -2 -5 -4 16 -4 21 0 33 4 26 7
-6 4 -16 14 -21 21 -8 11 -9 10 -4 -3z"/>
<path d="M2215 1975 c-21 -8 -41 -12 -44 -10 -2 3 -10 0 -17 -6 -8 -6 -21 -8
-30 -5 -10 4 -14 2 -11 -6 6 -19 64 -10 117 17 51 27 45 31 -15 10z"/>
<path d="M1708 1973 c6 -2 18 -2 25 0 6 3 1 5 -13 5 -14 0 -19 -2 -12 -5z"/>
<path d="M1758 1963 c7 -3 16 -2 19 1 4 3 -2 6 -13 5 -11 0 -14 -3 -6 -6z"/>
<path d="M1040 1949 c0 -5 5 -7 10 -4 6 3 10 8 10 11 0 2 -4 4 -10 4 -5 0 -10
-5 -10 -11z"/>
<path d="M2240 1951 c-8 -6 -18 -7 -22 -5 -4 3 -8 -4 -8 -15 0 -15 -6 -21 -22
-20 -17 1 -19 2 -5 6 9 2 17 8 17 12 0 5 -20 4 -45 -2 -24 -6 -42 -14 -39 -19
3 -4 9 -6 14 -3 5 3 27 1 49 -4 24 -5 39 -5 35 0 -3 5 0 9 5 9 6 0 11 5 11 11
0 7 8 18 18 25 19 15 14 18 -8 5z"/>
<path d="M1190 1934 c0 -8 5 -12 10 -9 6 4 8 11 5 16 -9 14 -15 11 -15 -7z"/>
<path d="M1116 1932 c-3 -5 1 -9 9 -9 8 0 12 4 9 9 -3 4 -7 8 -9 8 -2 0 -6 -4
-9 -8z"/>
<path d="M1928 1933 c7 -3 16 -2 19 1 4 3 -2 6 -13 5 -11 0 -14 -3 -6 -6z"/>
<path d="M2068 1933 c6 -2 18 -2 25 0 6 3 1 5 -13 5 -14 0 -19 -2 -12 -5z"/>
<path d="M756 1915 c4 -8 11 -15 16 -15 6 0 5 6 -2 15 -7 8 -14 15 -16 15 -2
0 -1 -7 2 -15z"/>
<path d="M1120 1899 c0 -5 5 -7 10 -4 6 3 10 8 10 11 0 2 -4 4 -10 4 -5 0 -10
-5 -10 -11z"/>
<path d="M2015 1900 c-19 -8 -19 -9 3 -9 12 -1 22 4 22 9 0 6 -1 10 -2 9 -2 0
-12 -4 -23 -9z"/>
<path d="M2060 1900 c0 -5 5 -10 11 -10 5 0 7 5 4 10 -3 6 -8 10 -11 10 -2 0
-4 -4 -4 -10z"/>
<path d="M740 1886 c0 -9 1 -16 3 -16 1 0 17 -4 35 -9 20 -6 30 -6 27 0 -4 5
-12 9 -20 9 -7 0 -21 7 -29 16 -15 14 -16 14 -16 0z"/>
<path d="M1888 1893 c7 -3 16 -2 19 1 4 3 -2 6 -13 5 -11 0 -14 -3 -6 -6z"/>
<path d="M2220 1870 c-9 -6 -10 -10 -3 -10 6 0 15 5 18 10 8 12 4 12 -15 0z"/>
<path d="M2130 1840 c0 -5 5 -10 11 -10 5 0 7 5 4 10 -3 6 -8 10 -11 10 -2 0
-4 -4 -4 -10z"/>
<path d="M5005 1754 c-126 -28 -241 -70 -283 -104 -35 -28 -46 -31 -76 -26
-21 4 -43 2 -55 -5 -15 -10 -24 -9 -45 4 -52 35 -236 7 -328 -49 -39 -24 -67
-34 -95 -33 -30 0 -34 2 -18 9 18 8 17 9 -7 9 -14 1 -28 -4 -30 -11 -3 -8 -12
-9 -36 0 -49 17 -268 -10 -382 -48 -91 -30 -120 -34 -120 -17 0 20 37 42 210
129 92 45 138 74 132 80 -19 19 -125 21 -192 3 -172 -45 -608 -202 -667 -240
-30 -20 -29 -35 2 -35 47 0 126 -22 122 -34 -3 -8 24 -10 102 -8 158 6 336
-20 420 -61 66 -32 67 -32 211 -31 118 1 153 5 183 19 33 15 42 16 63 5 14 -8
58 -14 102 -14 108 -1 351 21 365 32 7 6 64 10 127 10 125 0 290 29 408 72 55
20 81 40 51 40 -5 0 4 15 20 33 33 34 41 67 17 67 -23 0 -137 -28 -187 -45
-24 -9 -55 -17 -69 -19 -14 -2 -65 -13 -113 -25 -115 -27 -135 -18 -129 61 1
9 -6 18 -16 21 -9 2 1 7 23 11 78 15 212 47 348 83 109 30 137 41 137 54 0 10
-5 21 -10 24 -6 3 -7 17 -4 31 9 37 -10 29 -24 -11 -12 -33 -14 -33 -33 -17
-17 15 -18 17 -4 20 26 6 11 27 -21 29 -16 1 -60 -5 -99 -13z m-371 -276 c10
-56 -12 -66 -169 -73 -71 -4 -155 -11 -185 -17 -39 -7 -55 -7 -58 1 -2 6 -8 8
-14 5 -6 -4 -9 -1 -6 7 3 8 21 15 44 16 176 11 362 41 264 42 -19 1 -97 -4
-173 -10 -106 -8 -142 -7 -153 2 -20 16 -15 19 52 25 96 9 331 44 356 53 27
10 32 3 42 -51z m-548 -34 c-3 -9 -6 -19 -6 -24 0 -4 -8 -11 -17 -15 -28 -11
-63 -14 -63 -5 0 5 10 11 23 13 12 2 -7 6 -43 7 -36 2 -76 4 -90 5 -14 2 -31
3 -37 4 -7 0 -13 5 -13 11 0 8 50 13 194 18 49 2 57 0 52 -14z m-256 -4 c0 -6
-16 -8 -42 -4 -59 9 -60 14 -5 14 26 0 47 -5 47 -10z"/>
</g>
</svg>
