<?xml version="1.0" standalone="no"?>
<!DOCTYPE svg PUBLIC "-//W3C//DTD SVG 20010904//EN"
 "http://www.w3.org/TR/2001/REC-SVG-20010904/DTD/svg10.dtd">
<svg version="1.0" xmlns="http://www.w3.org/2000/svg"
 width="2048.000000pt" height="2048.000000pt" viewBox="0 0 2048.000000 2048.000000"
 preserveAspectRatio="xMidYMid meet">

<g transform="translate(0.000000,2048.000000) scale(0.100000,-0.100000)"
fill="#000000" stroke="none">
<path d="M14335 12044 c-115 -21 -234 -65 -328 -121 -87 -52 -222 -177 -276
-257 -235 -344 -240 -819 -10 -1157 256 -379 835 -510 1271 -289 251 128 415
335 489 618 29 111 36 310 15 429 -40 228 -146 419 -313 566 -83 72 -227 153
-323 181 -152 45 -371 58 -525 30z m342 -279 c124 -23 213 -73 313 -174 93
-94 144 -180 177 -301 25 -90 25 -318 -1 -410 -33 -123 -83 -207 -176 -301
-133 -133 -256 -183 -455 -183 -200 0 -339 56 -470 188 -126 128 -181 259
-192 456 -16 295 122 551 362 671 135 67 281 85 442 54z"/>
<path d="M11137 12020 c-1 -3 -1 -422 1 -932 l2 -928 145 0 c109 0 145 3 145
13 -2 80 12 1382 14 1384 3 3 270 -476 462 -829 l118 -218 83 0 83 0 21 43
c36 70 399 727 495 894 33 56 62 102 67 103 4 0 7 -313 7 -695 l0 -695 150 0
150 0 0 930 0 930 -188 0 -187 0 -141 -252 c-187 -333 -285 -513 -374 -680
-40 -76 -76 -138 -80 -138 -4 0 -33 49 -66 109 -32 59 -165 300 -294 534
l-235 426 -188 3 c-104 2 -190 1 -190 -2z"/>
<path d="M17238 12022 c-9 -2 -20 -13 -24 -25 -3 -12 -42 -112 -85 -222 -43
-110 -167 -425 -275 -700 -108 -275 -199 -506 -203 -512 -3 -7 -26 39 -50 105
-41 111 -412 1080 -484 1262 l-33 85 -167 3 c-92 1 -167 -1 -167 -4 0 -9 165
-422 412 -1034 110 -272 230 -569 267 -660 l67 -165 148 0 149 0 77 190 c234
575 402 985 618 1508 40 96 65 168 58 168 -25 3 -293 4 -308 1z"/>
<path d="M3646 11928 c-22 -51 -72 -169 -111 -263 -301 -706 -505 -1198 -595
-1432 l-28 -73 166 0 167 0 24 67 c13 37 50 130 81 207 l56 141 438 0 438 0
82 -207 81 -207 171 -1 171 0 -162 388 c-324 776 -418 1000 -485 1157 -37 88
-82 195 -100 238 l-32 77 -162 0 -162 0 -38 -92z m378 -713 c79 -198 142 -362
139 -365 -4 -4 -645 -1 -649 3 -1 1 22 61 51 132 162 399 246 604 261 640 l16
40 19 -45 c10 -25 83 -207 163 -405z"/>
<path d="M5140 11092 l0 -929 167 -6 c238 -10 628 -8 771 3 255 20 412 109
496 282 79 163 70 355 -25 497 -60 90 -123 134 -264 185 -18 6 -17 9 12 22 17
9 59 40 92 70 102 93 148 216 138 369 -12 186 -110 323 -276 386 -120 45 -176
49 -657 49 l-454 0 0 -928z m908 643 c29 -9 68 -30 88 -47 129 -113 102 -345
-49 -413 -78 -36 -160 -45 -409 -45 l-228 0 0 260 0 260 273 0 c217 0 284 -3
325 -15z m114 -792 c110 -52 155 -137 146 -272 -9 -118 -67 -190 -185 -228
-38 -13 -110 -17 -360 -21 l-313 -4 0 282 0 281 323 -3 322 -3 67 -32z"/>
<path d="M7065 11488 c-4 -293 -5 -713 -2 -933 5 -400 5 -400 26 -399 11 0 82
1 156 2 l135 2 0 310 0 310 218 0 217 -1 142 -212 c78 -117 174 -258 213 -314
l71 -103 107 1 c59 1 139 4 179 8 l72 6 -101 145 c-163 235 -348 508 -348 513
0 2 21 12 48 22 74 29 167 91 221 151 96 104 144 243 144 409 0 248 -114 445
-314 544 -137 67 -173 71 -709 71 l-468 0 -7 -532z m980 232 c79 -31 153 -105
180 -180 23 -64 26 -199 7 -267 -23 -77 -70 -134 -144 -172 -64 -32 -74 -34
-220 -43 -216 -12 -493 -7 -492 10 1 6 2 163 3 348 l1 336 303 -4 c286 -5 305
-6 362 -28z"/>
<path d="M8632 9190 c-120 -25 -237 -130 -284 -253 -29 -80 -32 -216 -5 -293
39 -113 125 -202 234 -245 46 -18 79 -22 158 -23 112 0 174 18 262 77 l48 32
3 168 2 167 -165 0 -165 0 0 -42 0 -43 122 0 123 0 0 -105 0 -105 -70 -35
c-64 -32 -76 -35 -160 -35 -75 0 -98 4 -140 25 -73 36 -138 105 -165 176 -31
83 -26 216 12 289 92 177 314 227 487 111 l51 -34 20 25 c11 14 20 29 20 34 0
16 -77 70 -130 90 -62 24 -191 33 -258 19z"/>
<path d="M10243 9190 c-113 -23 -183 -107 -183 -220 0 -115 61 -166 261 -221
145 -39 188 -62 213 -113 16 -32 17 -44 7 -76 -22 -75 -106 -116 -216 -107
-76 6 -160 38 -218 82 l-45 34 -26 -33 -26 -34 33 -28 c45 -38 120 -71 206
-90 190 -43 366 38 379 175 7 72 -5 117 -40 157 -42 47 -99 75 -248 119 -145
42 -166 54 -186 101 -30 72 19 150 109 175 60 17 164 -3 244 -45 l64 -34 19
31 c23 38 17 48 -53 84 -88 44 -202 61 -294 43z"/>
<path d="M12850 9191 c-265 -49 -402 -338 -282 -596 105 -223 413 -294 615
-140 58 44 64 62 33 94 l-25 24 -42 -37 c-66 -60 -121 -81 -214 -81 -102 1
-165 27 -233 99 -69 73 -95 146 -90 251 4 67 10 90 38 143 38 72 73 105 150
141 80 38 192 37 271 -2 31 -15 69 -39 84 -53 31 -29 50 -26 67 11 10 22 8 29
-13 51 -13 14 -55 41 -94 59 -77 38 -178 51 -265 36z"/>
<path d="M13801 9190 c-111 -23 -181 -107 -181 -217 0 -119 58 -171 251 -222
143 -38 167 -49 203 -91 47 -57 29 -138 -41 -182 -33 -20 -50 -23 -123 -22
-98 1 -174 25 -245 79 l-44 34 -21 -26 c-11 -14 -20 -32 -20 -40 0 -21 111
-88 182 -108 93 -28 228 -26 293 3 60 28 82 47 105 92 40 80 34 170 -17 230
-34 41 -97 71 -213 104 -173 49 -213 71 -225 127 -24 110 86 186 230 160 33
-6 90 -26 126 -44 l67 -34 16 28 c23 39 21 45 -26 73 -83 48 -230 74 -317 56z"/>
<path d="M6318 9183 c-17 -4 -18 -32 -18 -398 l0 -394 53 -6 c28 -3 147 -5
262 -3 l210 3 3 38 3 37 -225 0 -226 0 0 359 c0 398 3 381 -62 364z"/>
<path d="M7403 9176 c-190 -62 -306 -257 -273 -463 44 -275 334 -422 587 -298
295 145 292 591 -5 737 -59 29 -76 33 -166 35 -65 2 -116 -2 -143 -11z m239
-82 c65 -21 141 -92 175 -162 23 -49 27 -70 28 -147 0 -78 -4 -98 -28 -150
-54 -115 -139 -175 -263 -183 -135 -9 -243 52 -304 172 -33 64 -35 75 -34 160
0 105 20 159 80 226 91 101 209 130 346 84z"/>
<path d="M10978 9183 c-13 -3 -18 -15 -18 -42 l0 -37 109 4 c60 2 121 2 135
-2 l26 -6 0 -360 0 -360 28 0 c53 0 52 -9 54 371 l3 354 138 3 138 3 -3 37 -3
37 -295 1 c-162 1 -303 0 -312 -3z"/>
<path d="M11995 9178 c-3 -7 -4 -189 -3 -403 l3 -390 43 -3 42 -3 -2 403 -3
403 -38 3 c-24 2 -39 -1 -42 -10z"/>
<path d="M9510 8780 l0 -400 40 0 40 0 0 400 0 400 -40 0 -40 0 0 -400z"/>
</g>
</svg>
